<?xml version="1.0" encoding="UTF-8"?>
<svg id="Capa_1" xmlns="http://www.w3.org/2000/svg" xmlns:xlink="http://www.w3.org/1999/xlink" version="1.1" viewBox="0 0 512 512">
  <!-- Generator: Adobe Illustrator 29.3.1, SVG Export Plug-In . SVG Version: 2.1.0 Build 151)  -->
  <defs>
    <style>
      .st0 {
        fill: #fff;
      }
    </style>
  </defs>
  <g id="_01_align_center">
    <path class="st0" d="M255.1,512.2l-14.9-12.7c-20.5-17.2-199.5-171.8-199.5-284.8S136.7.2,255.1.2s214.4,96,214.4,214.4-179,267.7-199.4,284.9l-15,12.7ZM255.1,46.6c-92.8.1-167.9,75.3-168,168,0,71,110.1,184.5,168,236.5,57.9-52,168-165.5,168-236.5-.1-92.8-75.3-167.9-168-168Z"/>
    <path class="st0" d="M255.1,299.6c-46.9,0-85-38-85-85s38-85,85-85,85,38,85,85-38,85-85,85ZM255.1,172.1c-23.5,0-42.5,19-42.5,42.5s19,42.5,42.5,42.5,42.5-19,42.5-42.5-19-42.5-42.5-42.5Z"/>
  </g>
</svg>