<?xml version="1.0" encoding="UTF-8"?>
<svg id="Outline" xmlns="http://www.w3.org/2000/svg" version="1.1" viewBox="0 0 512 512">
  <!-- Generator: Adobe Illustrator 29.3.1, SVG Export Plug-In . SVG Version: 2.1.0 Build 151)  -->
  <defs>
    <style>
      .st0 {
        fill: #fff;
      }
    </style>
  </defs>
  <path class="st0" d="M405.3,21.3H106.7C47.8,21.4,0,69.1,0,128v256c0,58.9,47.8,106.6,106.7,106.7h298.7c58.9,0,106.6-47.8,106.7-106.7V128c0-58.9-47.8-106.6-106.7-106.7ZM106.7,64h298.7c26.1,0,49.6,16,59.3,40.3l-163.4,163.4c-25,24.9-65.5,24.9-90.5,0L47.4,104.3c9.7-24.3,33.2-40.2,59.3-40.3ZM405.3,448H106.7c-35.3,0-64-28.7-64-64v-224l137.9,137.8c41.7,41.6,109.2,41.6,150.9,0l137.9-137.8v224c0,35.3-28.7,64-64,64Z"/>
</svg>