<?xml version="1.0" encoding="UTF-8"?>
<svg id="Layer_1" xmlns="http://www.w3.org/2000/svg" version="1.1" viewBox="0 0 512 512">
  <!-- Generator: Adobe Illustrator 29.3.1, SVG Export Plug-In . SVG Version: 2.1.0 Build 151)  -->
  <defs>
    <style>
      .st0 {
        fill: #fff;
      }
    </style>
  </defs>
  <path class="st0" d="M39,39C13.4,64.4,0,97.7,0,133.3c0,162.8,215.9,378.9,378.9,378.9,35.8,0,68.9-13.4,93.4-38l21.3-24.5c24.7-24.7,24.7-66.6-1.1-92.4-.6-.6-52.1-40.1-52.1-40.1-25.4-24.5-65.9-24.5-91.3,0l-31.1,25c-68.3-29-116.7-77.7-147.8-148.3l24.7-31.1c24.3-25.4,24.3-65.7,0-91.3,0,0-39.5-51.4-40.1-52.1-25.8-25.8-67.6-25.8-93.4,0l-22.4,19.4v.2ZM378.8,469.3c-127.8,0-336.2-187.7-336.2-336.2,0-24.3,9.2-46.7,25.6-63.1l22.4-19.4c9.8-9.8,24.1-10,33.3-1.7,0,0,39.3,51,39.9,51.6,9.2,9.2,9.2,23.9,0,33.1-.4.4-34.8,43.5-34.8,43.5-4.9,6.2-6,14.3-3.2,21.3,36.5,91.1,99.8,154.2,188.2,187.9,7,2.8,14.9,1.5,20.9-3.2,0,0,42.9-34.3,43.5-35,9-8.7,24.3-8.7,33.1,0,.6.6,51.6,39.9,51.6,39.9,8.3,9.2,7.9,23.5-.9,32.2l-21.3,24.5c-15.4,15.6-37.8,24.5-62.1,24.5h0Z"/>
</svg>