<svg id="mail" xmlns="http://www.w3.org/2000/svg" width="35.362" height="37.022" viewBox="0 0 35.362 37.022">
  <path id="customer-source-line-svgrepo-com" d="M30.08,25.057,32.4,22.821a17.634,17.634,0,0,0-6.719-4.372,9.658,9.658,0,1,0-12.135.04A17.742,17.742,0,0,0,1.935,35.119H5.154A14.508,14.508,0,0,1,19.645,20.628a14.361,14.361,0,0,1,10.435,4.43ZM19.588,4.516a6.442,6.442,0,1,1-6.442,6.442A6.447,6.447,0,0,1,19.588,4.516Zm8.031,23.465L34.7,35.066,37.3,25.388ZM33.453,30.4l-1.167-1.167,1.6-.427Zm-9.2,7.917,9.678-2.593-7.085-7.085-2.593,9.678ZM28.095,33.3l1.167,1.167-1.6.427Z" transform="translate(-1.935 -1.293)" fill="#fff"/>
</svg>
